<svg width="14687" height="3338" viewBox="0 0 14687 3338" fill="none" xmlns="http://www.w3.org/2000/svg">
<path opacity="0.68" d="M1669.5 1669.86C1669.5 1669.86 955.396 2499.82 0 1698.82C0 1698.82 752.741 878.506 1669.5 1669.86Z" fill="#FF8360"/>
<path opacity="0.7" d="M1669.5 1669.86C1669.5 1669.86 578.22 1758.73 461.146 517.48C461.146 517.48 1573.11 462.61 1669.5 1669.86Z" fill="#3CDBD3"/>
<path opacity="0.68" d="M1669.5 1669.86C1669.5 1669.86 830.551 966.391 1619.31 0.822266C1619.31 0.822266 2449.09 743.048 1669.5 1669.86Z" fill="#FF8360"/>
<path opacity="0.7" d="M1669.5 1669.86C1669.5 1669.86 1566.75 579.804 2806.4 446.922C2806.4 446.922 2875.4 1558.1 1669.5 1669.86Z" fill="#3CDBD3"/>
<path opacity="0.7" d="M1608.6 1649.8C1608.6 1649.8 2301.31 801.937 3276.81 1578.35C3276.81 1578.35 2545.19 2417.56 1608.6 1649.8Z" fill="#E8E288"/>
<path opacity="0.68" d="M1669.52 1669.86C1669.52 1669.86 2758.14 1553.26 2906.83 2791.14C2906.83 2791.14 1796.62 2874.26 1669.52 1669.86Z" fill="#FF8360"/>
<path opacity="0.7" d="M1669.49 1669.86C1669.49 1669.86 2526.03 2351.8 1762.17 3337.11C1762.17 3337.11 913.742 2616.19 1669.49 1669.86Z" fill="#3CDBD3"/>
<path opacity="0.7" d="M1669.51 1669.86C1669.51 1669.86 1799.93 2756.96 564.107 2921.33C564.107 2921.33 466.859 1812.27 1669.51 1669.86Z" fill="#E8E288"/>
<path d="M3855.18 1315.63V2589.98H3656.07C3664.18 2545.72 3668.97 2481.94 3670.45 2398.6C3671.93 2314.54 3672.65 2217.93 3672.65 2108.78V1456.12C3672.65 1346.97 3671.93 1250.73 3670.45 1167.4C3668.97 1083.32 3664.18 1019.17 3656.07 974.915H3855.18L4734.58 2254.8V974.915H4933.7C4930.02 997.04 4927.07 1024.33 4924.86 1056.77C4922.64 1089.22 4920.8 1126.1 4919.32 1167.4C4918.59 1207.96 4917.84 1252.57 4917.11 1301.25C4917.11 1349.92 4917.11 1401.54 4917.11 1456.12V2589.98H4734.58L3855.18 1315.63ZM5309.8 1102.13C5309.8 1081.48 5313.12 1062.31 5319.76 1044.61C5326.39 1026.17 5335.61 1010.31 5347.41 997.04C5359.95 983.028 5374.69 972.334 5391.66 964.961C5408.61 956.848 5427.43 952.792 5448.08 952.792C5468.73 952.792 5487.88 956.848 5505.6 964.961C5523.28 972.334 5538.41 983.028 5550.95 997.04C5563.47 1010.31 5573.45 1026.17 5580.81 1044.61C5588.19 1062.31 5591.87 1081.48 5591.87 1102.13C5591.87 1122.78 5588.19 1142.32 5580.81 1160.76C5573.45 1178.46 5563.47 1194.31 5550.95 1208.33C5538.41 1221.6 5523.28 1232.29 5505.6 1240.4C5487.88 1247.78 5468.73 1251.47 5448.08 1251.47C5427.43 1251.47 5408.61 1247.78 5391.66 1240.4C5374.69 1232.29 5359.95 1221.6 5347.41 1208.33C5335.61 1194.31 5326.39 1178.46 5319.76 1160.76C5313.12 1142.32 5309.8 1122.78 5309.8 1102.13ZM5553.16 2064.52C5553.16 2099.92 5553.52 2141.97 5554.27 2190.64C5555.75 2238.58 5557.22 2287.25 5558.68 2336.67C5560.91 2386.06 5563.11 2433.27 5565.33 2478.26C5568.27 2523.25 5571.61 2560.49 5575.29 2589.98H5348.52V2003.7C5348.52 1949.85 5348.16 1896.75 5347.41 1844.39C5347.41 1792.03 5346.68 1742.62 5345.2 1696.16C5344.45 1648.97 5342.98 1605.45 5340.77 1565.63C5338.57 1525.07 5335.61 1490.41 5331.93 1461.65H5553.16V2064.52ZM5935.9 2589.98V1909.66C5935.9 1800.52 5929.63 1708.33 5917.09 1633.11C5905.29 1557.15 5893.12 1500 5880.6 1461.65H6079.69C6084.12 1473.45 6088.55 1488.93 6092.98 1508.11C6097.39 1526.54 6101.46 1546.09 6105.14 1566.74C6108.82 1587.39 6112.14 1607.67 6115.09 1627.58L6123.95 1677.36C6150.49 1639.01 6179.25 1605.09 6210.22 1575.59C6241.94 1546.09 6273.65 1521.38 6305.37 1501.47C6337.81 1480.82 6369.14 1465.33 6399.38 1455.01C6430.35 1444.69 6458.39 1439.52 6483.45 1439.52C6529.91 1439.52 6568.99 1449.85 6600.71 1470.5C6633.15 1490.41 6659.34 1517.7 6679.25 1552.36C6699.9 1586.28 6714.65 1625.73 6723.48 1670.72C6733.07 1714.97 6737.87 1761.43 6737.87 1810.1L6560.88 1848.82C6560.88 1821.53 6558.31 1795.35 6553.15 1770.28C6547.97 1744.47 6540.25 1721.97 6529.91 1702.8C6519.59 1682.89 6506.31 1667.4 6490.08 1656.34C6474.61 1644.54 6455.8 1638.64 6433.67 1638.64C6410.08 1638.64 6383.89 1647.86 6355.15 1666.29C6326.38 1683.99 6297.98 1707.59 6269.97 1737.09C6242.68 1766.59 6217.24 1799.78 6193.63 1836.65C6170.03 1873.53 6152.33 1910.77 6140.54 1948.37V2589.98H5935.9ZM7910.42 1461.65C7894.92 1493.36 7878.7 1527.65 7861.75 1564.52C7845.53 1601.4 7829.67 1637.53 7814.18 1672.93C7799.43 1708.33 7785.41 1741.89 7772.14 1773.6C7758.88 1805.31 7747.81 1832.23 7738.97 1854.35C7731.59 1872.05 7721.64 1896.39 7709.1 1927.36C7697.3 1957.6 7683.65 1991.88 7668.18 2030.23C7653.41 2067.86 7637.57 2108.03 7620.6 2150.81C7603.63 2192.85 7587.04 2234.52 7570.82 2275.82C7531.74 2373.16 7490.08 2477.88 7445.82 2589.98H7235.66C7192.88 2483.05 7152.69 2382.02 7115.08 2286.88C7098.86 2246.31 7082.25 2205.02 7065.3 2162.99C7048.33 2120.94 7032.11 2080.76 7016.64 2042.41C7001.87 2003.31 6987.87 1967.55 6974.59 1935.1C6962.06 1902.66 6951.36 1875.73 6942.52 1854.35C6933.67 1832.23 6922.6 1805.31 6909.33 1773.6C6896.06 1741.15 6881.68 1707.23 6866.19 1671.83C6850.71 1636.43 6834.86 1600.66 6818.63 1564.52C6802.39 1527.65 6786.55 1493.36 6771.06 1461.65H7003.35L7340.74 2368.73L7678.13 1461.65H7910.42ZM8823.01 1636.43C8814.17 1634.22 8804.22 1632 8793.15 1629.79C8782.09 1627.58 8768.82 1625.37 8753.33 1623.15C8738.58 1620.94 8720.88 1619.47 8700.23 1618.73C8680.33 1617.25 8656.72 1616.52 8629.43 1616.52C8557.16 1616.52 8496.68 1631.27 8448.02 1660.76C8400.08 1689.53 8361.75 1728.24 8332.98 1776.92C8304.22 1824.85 8283.57 1880.16 8271.03 1942.85C8259.24 2005.54 8253.33 2070.06 8253.33 2136.43C8253.33 2179.21 8257.39 2218.66 8265.51 2254.8C8274.35 2290.2 8286.16 2321.17 8300.9 2347.71C8315.65 2373.52 8332.62 2393.81 8351.78 2408.55C8370.95 2422.57 8391.6 2429.57 8413.73 2429.57C8446.18 2429.57 8478.62 2417.05 8511.06 2391.97C8544.26 2366.89 8575.97 2334.8 8606.21 2295.72C8636.43 2255.9 8664.83 2211.66 8691.39 2162.99C8717.93 2113.57 8740.78 2064.91 8759.96 2016.97C8779.86 1968.3 8795.36 1922.56 8806.42 1879.8C8817.49 1837.02 8823.01 1802.73 8823.01 1776.92V1636.43ZM8905.98 2589.98C8897.87 2572.28 8890.49 2547.94 8883.85 2516.98C8877.95 2485.99 8872.79 2453.18 8868.38 2418.51C8864.68 2383.11 8861.72 2348.09 8859.52 2313.42C8857.31 2278.77 8856.2 2249.26 8856.2 2224.93V2136.43C8834.07 2193.96 8807.53 2251.49 8776.55 2308.99C8746.33 2365.79 8711.29 2417.05 8671.47 2462.77C8632.39 2508.48 8588.51 2545.72 8539.83 2574.48C8491.16 2603.25 8438.06 2617.63 8380.54 2617.63C8334.08 2617.63 8290.57 2607.31 8250.01 2586.66C8209.46 2566.01 8174.06 2535.4 8143.82 2494.85C8114.33 2454.29 8091.09 2404.12 8074.14 2344.39C8057.17 2283.93 8048.69 2214.61 8048.69 2136.43C8048.69 2048.68 8060.48 1963.12 8084.09 1879.8C8107.69 1795.72 8143.82 1721.24 8192.49 1656.34C8241.17 1590.71 8303.11 1538.34 8378.33 1499.26C8453.56 1459.44 8542.78 1439.52 8646.02 1439.52C8717.56 1439.52 8785.04 1444.32 8848.45 1453.9C8911.89 1462.75 8971.62 1474.55 9027.65 1489.3V2003.7C9027.65 2143.07 9034.3 2260.33 9047.57 2355.46C9060.84 2449.86 9078.17 2528.04 9099.55 2589.98H8905.98ZM10095.1 1636.43C10086.3 1634.22 10076.3 1632 10065.2 1629.79C10054.2 1627.58 10040.9 1625.37 10025.4 1623.15C10010.7 1620.94 9992.97 1619.47 9972.34 1618.73C9952.41 1617.25 9928.83 1616.52 9901.54 1616.52C9829.27 1616.52 9768.79 1631.27 9720.13 1660.76C9672.19 1689.53 9633.84 1728.24 9605.07 1776.92C9576.33 1824.85 9555.68 1880.16 9543.14 1942.85C9531.34 2005.54 9525.44 2070.06 9525.44 2136.43C9525.44 2179.21 9529.48 2218.66 9537.6 2254.8C9546.45 2290.2 9558.25 2321.17 9572.99 2347.71C9587.76 2373.52 9604.71 2393.81 9623.88 2408.55C9643.06 2422.57 9663.71 2429.57 9685.84 2429.57C9718.28 2429.57 9750.73 2417.05 9783.17 2391.97C9816.37 2366.89 9848.06 2334.8 9878.3 2295.72C9908.54 2255.9 9936.94 2211.66 9963.48 2162.99C9990.04 2113.57 10012.9 2064.91 10032.1 2016.97C10052 1968.3 10067.5 1922.56 10078.5 1879.8C10089.6 1837.02 10095.1 1802.73 10095.1 1776.92V1636.43ZM10178.1 2589.98C10170 2572.28 10162.6 2547.94 10156 2516.98C10150.1 2485.99 10144.9 2453.18 10140.5 2418.51C10136.8 2383.11 10133.8 2348.09 10131.6 2313.42C10129.4 2278.77 10128.3 2249.26 10128.3 2224.93V2136.43C10106.2 2193.96 10079.6 2251.49 10048.7 2308.99C10018.4 2365.79 9983.38 2417.05 9943.58 2462.77C9904.48 2508.48 9860.6 2545.72 9811.94 2574.48C9763.27 2603.25 9710.17 2617.63 9652.65 2617.63C9606.19 2617.63 9562.68 2607.31 9522.12 2586.66C9481.57 2566.01 9446.17 2535.4 9415.93 2494.85C9386.42 2454.29 9363.2 2404.12 9346.23 2344.39C9329.28 2283.93 9320.8 2214.61 9320.8 2136.43C9320.8 2048.68 9332.59 1963.12 9356.2 1879.8C9379.78 1795.72 9415.93 1721.24 9464.6 1656.34C9513.26 1590.71 9575.22 1538.34 9650.44 1499.26C9725.65 1459.44 9814.89 1439.52 9918.13 1439.52C9989.65 1439.52 10057.1 1444.32 10120.6 1453.9C10184 1462.75 10243.7 1474.55 10299.8 1489.3V2003.7C10299.8 2143.07 10306.4 2260.33 10319.7 2355.46C10332.9 2449.86 10350.3 2528.04 10371.7 2589.98H10178.1ZM11367.2 1671.83C11349.5 1665.19 11330.7 1659.29 11310.8 1654.13C11290.9 1648.23 11270.6 1643.43 11250 1639.75C11229.3 1636.06 11209 1633.11 11189.1 1630.9C11170 1628.68 11151.9 1627.58 11134.9 1627.58C11074.5 1627.58 11022.8 1640.12 10980.1 1665.19C10937.3 1689.53 10902.3 1721.97 10875 1762.54C10848.4 1802.36 10828.9 1847.71 10816.3 1898.59C10803.8 1949.49 10797.5 2001.11 10797.5 2053.48C10797.5 2122.05 10802.7 2179.21 10813 2224.93C10824.1 2269.91 10838.8 2306.06 10857.3 2333.33C10876.5 2359.89 10898.6 2379.06 10923.6 2390.86C10949.5 2401.92 10977.5 2407.46 11007.7 2407.46C11035.7 2407.46 11065.6 2401.92 11097.3 2390.86C11129 2379.06 11160.7 2362.48 11192.4 2341.07C11224.9 2319.69 11255.9 2293.16 11285.4 2261.44C11315.6 2229.72 11342.9 2193.59 11367.2 2153.02V1671.83ZM11571.9 2562.33C11571.9 2659.66 11557.5 2743 11528.7 2812.32C11500.7 2881.64 11463.4 2938.06 11417 2981.57C11371.3 3025.83 11318.9 3058.27 11259.9 3078.92C11200.9 3099.58 11140.8 3109.89 11079.6 3109.89C11008.8 3109.89 10938.4 3097.74 10868.3 3073.38C10799 3049.05 10734.9 3016.97 10675.9 2977.16L10747.8 2805.69C10800.1 2843.29 10852.8 2873.89 10905.9 2897.5C10959 2921.11 11013.3 2932.9 11068.6 2932.9C11097.3 2932.9 11129 2927.74 11163.7 2917.43C11198.4 2907.09 11230.8 2889.03 11261 2863.21C11291.3 2838.13 11316.3 2804.21 11336.2 2761.45C11356.9 2718.67 11367.2 2665.2 11367.2 2601.04V2374.27C11338.5 2410.4 11307.9 2442.48 11275.4 2470.51C11243.7 2497.8 11211.3 2520.66 11178.1 2539.08C11145.6 2557.53 11112.8 2571.55 11079.6 2581.12C11047.2 2590.71 11015.8 2595.5 10985.6 2595.5C10934.7 2595.5 10885.7 2586.66 10838.5 2568.96C10791.3 2551.26 10749.2 2523.25 10712.4 2484.89C10676.2 2445.79 10647.1 2395.29 10625 2333.33C10603.6 2271.39 10592.9 2196.53 10592.9 2108.78C10592.9 2023.96 10604 1941.37 10626.1 1860.99C10648.2 1780.6 10682.5 1709.44 10729 1647.49C10775.4 1584.8 10834.8 1534.66 10907.1 1497.05C10980.1 1458.7 11067.1 1439.52 11168.1 1439.52C11201.3 1439.52 11235.2 1442.1 11269.9 1447.27C11305.3 1451.69 11340.3 1457.96 11375 1466.07C11409.6 1474.18 11443.5 1483.4 11476.7 1493.73C11509.9 1503.31 11541.6 1512.9 11571.9 1522.49V2562.33ZM12612.8 1636.43C12603.9 1634.22 12594 1632 12582.9 1629.79C12571.8 1627.58 12558.6 1625.37 12543.1 1623.15C12528.3 1620.94 12510.6 1619.47 12490 1618.73C12470.1 1617.25 12446.5 1616.52 12419.2 1616.52C12346.9 1616.52 12286.5 1631.27 12237.8 1660.76C12189.8 1689.53 12151.5 1728.24 12122.7 1776.92C12094 1824.85 12073.3 1880.16 12060.8 1942.85C12049 2005.54 12043.1 2070.06 12043.1 2136.43C12043.1 2179.21 12047.1 2218.66 12055.3 2254.8C12064.1 2290.2 12075.9 2321.17 12090.7 2347.71C12105.4 2373.52 12122.4 2393.81 12141.5 2408.55C12160.7 2422.57 12181.4 2429.57 12203.5 2429.57C12235.9 2429.57 12268.4 2417.05 12300.8 2391.97C12334 2366.89 12365.7 2334.8 12396 2295.72C12426.2 2255.9 12454.6 2211.66 12481.1 2162.99C12507.7 2113.57 12530.6 2064.91 12549.7 2016.97C12569.6 1968.3 12585.1 1922.56 12596.2 1879.8C12607.2 1837.02 12612.8 1802.73 12612.8 1776.92V1636.43ZM12695.7 2589.98C12687.6 2572.28 12680.3 2547.94 12673.6 2516.98C12667.7 2485.99 12662.6 2453.18 12658.1 2418.51C12654.4 2383.11 12651.5 2348.09 12649.3 2313.42C12647.1 2278.77 12646 2249.26 12646 2224.93V2136.43C12623.8 2193.96 12597.3 2251.49 12566.3 2308.99C12536.1 2365.79 12501 2417.05 12461.2 2462.77C12422.1 2508.48 12378.3 2545.72 12329.6 2574.48C12280.9 2603.25 12227.8 2617.63 12170.3 2617.63C12123.8 2617.63 12080.3 2607.31 12039.8 2586.66C11999.2 2566.01 11963.8 2535.4 11933.6 2494.85C11904.1 2454.29 11880.9 2404.12 11863.9 2344.39C11846.9 2283.93 11838.4 2214.61 11838.4 2136.43C11838.4 2048.68 11850.3 1963.12 11873.8 1879.8C11897.4 1795.72 11933.6 1721.24 11982.3 1656.34C12030.9 1590.71 12092.9 1538.34 12168.1 1499.26C12243.3 1459.44 12332.6 1439.52 12435.8 1439.52C12507.3 1439.52 12574.8 1444.32 12638.2 1453.9C12701.6 1462.75 12761.4 1474.55 12817.4 1489.3V2003.7C12817.4 2143.07 12824.1 2260.33 12837.3 2355.46C12850.6 2449.86 12867.9 2528.04 12889.3 2589.98H12695.7ZM14039.7 2589.98H13835.1V1959.44C13835.1 1890.87 13832.5 1835.54 13827.4 1793.51C13822.2 1750.74 13813.3 1717.55 13800.8 1693.95C13789 1669.61 13772.8 1653.39 13752.1 1645.28C13731.5 1637.16 13705.7 1633.11 13674.7 1633.11C13647.4 1633.11 13620.1 1638.64 13592.8 1649.7C13565.6 1660.76 13539.4 1676.62 13514.3 1697.27C13490 1717.18 13467.1 1741.15 13445.7 1769.17C13425.1 1796.46 13407.4 1826.69 13392.6 1859.88V2589.98H13188V1909.66C13188 1800.52 13181.7 1708.33 13169.2 1633.11C13156.6 1557.15 13144.5 1500 13132.7 1461.65H13331.8C13339.9 1485.25 13346.9 1513.27 13352.8 1545.72C13358.7 1577.43 13363.5 1606.56 13367.2 1633.11C13401.1 1594.02 13433.6 1561.94 13464.5 1536.87C13495.5 1511.79 13526.1 1492.25 13556.3 1478.24C13587.3 1463.49 13617.9 1453.53 13648.1 1448.37C13678.4 1442.47 13709.4 1439.52 13741.1 1439.52C13777.2 1439.52 13810 1444.69 13839.5 1455.01C13869 1465.33 13894.8 1478.98 13916.9 1495.94C13939.8 1512.9 13959.4 1532.81 13975.6 1555.67C13991.8 1577.8 14004.3 1601.03 14013.2 1625.37C14047.9 1587.75 14081.4 1557.15 14113.9 1533.55C14146.3 1509.21 14178 1490.41 14209 1477.13C14240 1463.12 14270.2 1453.53 14299.7 1448.37C14329.9 1442.47 14359.4 1439.52 14388.2 1439.52C14444.2 1439.52 14491.4 1448.74 14529.8 1467.18C14568.1 1484.88 14598.7 1511.43 14621.6 1546.83C14645.2 1582.22 14661.8 1626.1 14671.4 1678.46C14681.7 1730.82 14686.9 1791.3 14686.9 1859.88V2589.98H14482.2V1981.57C14482.2 1910.02 14479.6 1851.77 14474.5 1806.78C14469.3 1761.8 14460.5 1726.4 14447.9 1700.59C14436.1 1674.78 14419.9 1657.08 14399.2 1647.49C14378.6 1637.9 14352.8 1633.11 14321.8 1633.11C14294.5 1633.11 14267.6 1638.64 14241.1 1649.7C14214.5 1660.03 14188.7 1675.14 14163.6 1695.06C14139.3 1714.23 14116.4 1737.83 14095 1765.85C14074.4 1793.88 14056 1825.22 14039.7 1859.88V2589.98Z" fill="white"/>
</svg>
